<svg fill="#e7d50d" version="1.1" id="Capa_1" xmlns="http://www.w3.org/2000/svg" xmlns:xlink="http://www.w3.org/1999/xlink" viewBox="0 0 60 60" xml:space="preserve" stroke="#e7d50d"><g id="SVGRepo_bgCarrier" stroke-width="0"></g><g id="SVGRepo_tracerCarrier" stroke-linecap="round" stroke-linejoin="round"></g><g id="SVGRepo_iconCarrier"> <g> <g> <path d="M56,11H41V7h2c0.6,0,1-0.4,1-1V2c0-0.6-0.4-1-1-1H17c-0.6,0-1,0.4-1,1v4c0,0.6,0.4,1,1,1h2v4H4c-2.2,0-4,1.8-4,4v15 c0,0.6,0.4,1,1,1h3v27c0,0.6,0.4,1,1,1h33v-2H6V31h14v-2H5H2V15c0-1.1,0.9-2,2-2h16h20h16c1.1,0,2,0.9,2,2v14h-3H40v2h14v2h2v-2h3 c0.6,0,1-0.4,1-1V15C60,12.8,58.2,11,56,11z M18,3h24v2H18V3z M21,11V7h18v4H21z"></path> <path d="M37,26H23c-0.6,0-1,0.4-1,1v6c0,0.6,0.4,1,1,1h14c0.6,0,1-0.4,1-1v-6C38,26.4,37.6,26,37,26z M36,32H24v-4h12V32z"></path> <path d="M59,35H41c-0.6,0-1,0.4-1,1v22c0,0.6,0.4,1,1,1h18c0.6,0,1-0.4,1-1V36C60,35.4,59.6,35,59,35z M58,37v4H42v-4H58z M42,57 V43h16v14H42z"></path> <rect x="45" y="45" width="2" height="2"></rect> <rect x="49" y="45" width="2" height="2"></rect> <rect x="53" y="45" width="2" height="2"></rect> <rect x="45" y="49" width="2" height="2"></rect> <rect x="49" y="49" width="2" height="2"></rect> <rect x="53" y="49" width="2" height="2"></rect> <rect x="45" y="53" width="2" height="2"></rect> <rect x="49" y="53" width="2" height="2"></rect> <rect x="53" y="53" width="2" height="2"></rect> <rect x="43" y="38" width="2" height="2"></rect> <rect x="46" y="38" width="2" height="2"></rect> <rect x="49" y="38" width="2" height="2"></rect> <rect x="52" y="38" width="2" height="2"></rect> <rect x="55" y="38" width="2" height="2"></rect> </g> </g> </g></svg>