<svg viewBox="0 0 64 64" xmlns="http://www.w3.org/2000/svg" fill="#edd012" stroke="#edd012"><g id="SVGRepo_bgCarrier" stroke-width="0"></g><g id="SVGRepo_tracerCarrier" stroke-linecap="round" stroke-linejoin="round"></g><g id="SVGRepo_iconCarrier"> <defs> <style>.cls-1{fill:#d8d8fc;}.cls-2{fill:#61729b;}.cls-3{fill:#4bb9ec;}.cls-4{fill:#f2f2fc;}</style> </defs> <title></title> <g id="keyword"> <path class="cls-1" d="M21.043,46.8a16.757,16.757,0,0,1,23.7-23.7l.125.126V12.808h-7a1,1,0,0,1-1-1v-7h-30v54h38V50.891l-2.274-2.274A16.771,16.771,0,0,1,21.043,46.8ZM9.75,10.8h24a1,1,0,0,1,0,2h-24a1,1,0,0,1,0-2Zm0,4h24a1,1,0,0,1,0,2h-24a1,1,0,0,1,0-2Zm0,4h12a1,1,0,0,1,0,2h-12a1,1,0,0,1,0-2ZM9.639,46.808H17.75a1,1,0,1,1,0,2H9.639a1,1,0,0,1,0-2Zm0,4H21.75a1,1,0,1,1,0,2H9.639a1,1,0,0,1,0-2Zm24,6h-24a1,1,0,0,1,0-2h24a1,1,0,0,1,0,2Z"></path> <polygon class="cls-1" points="38.866 6.222 38.866 10.808 43.452 10.808 38.866 6.222"></polygon> <path d="M9.75,12.8h24a1,1,0,0,0,0-2h-24a1,1,0,0,0,0,2Z"></path> <path d="M33.639,54.808h-24a1,1,0,0,0,0,2h24a1,1,0,0,0,0-2Z"></path> <path d="M9.75,16.8h24a1,1,0,0,0,0-2h-24a1,1,0,0,0,0,2Z"></path> <path d="M9.639,52.808H21.75a1,1,0,1,0,0-2H9.639a1,1,0,0,0,0,2Z"></path> <path d="M9.75,20.8h12a1,1,0,0,0,0-2h-12a1,1,0,0,0,0,2Z"></path> <path d="M9.639,48.808H17.75a1,1,0,1,0,0-2H9.639a1,1,0,0,0,0,2Z"></path> <path class="cls-2" d="M43.327,24.515a14.757,14.757,0,1,0,0,20.87A14.764,14.764,0,0,0,43.327,24.515Zm-1.769,19.1a12.255,12.255,0,1,1,0-17.331A12.262,12.262,0,0,1,41.558,43.615Z"></path> <path class="cls-3" d="M40.143,27.7a10.255,10.255,0,1,0,0,14.5A10.259,10.259,0,0,0,40.143,27.7Zm-7.182,15.25a4,4,0,0,1-1.01-7.87l0-2.128h-.992a1,1,0,1,1,0-2h.995l0-2h-1a1,1,0,0,1,0-2h2a1,1,0,0,1,1,1l-.01,7.12a4,4,0,0,1-.99,7.875Z"></path> <circle class="cls-3" cx="32.961" cy="38.949" r="1.999"></circle> <path d="M24.226,26.284a12.255,12.255,0,1,0,17.332,0A12.262,12.262,0,0,0,24.226,26.284ZM25.641,42.2a10.255,10.255,0,1,1,14.5,0A10.259,10.259,0,0,1,25.641,42.2Z"></path> <rect class="cls-4" height="7.663" transform="translate(-21.11 48.066) rotate(-45.011)" width="1.61" x="46.645" y="45.677"></rect> <rect class="cls-2" height="4.668" transform="translate(-23.501 53.827) rotate(-45.001)" width="5.22" x="50.614" y="52.948"></rect> <path d="M58.841,54.38l-4.715-4.715a1,1,0,0,0-1.414,0l-.569.569L46.559,44.65A16.786,16.786,0,0,0,46.866,25.7V11.808a1,1,0,0,0-.293-.707l-8-8a1,1,0,0,0-.707-.293h-32a1,1,0,0,0-1,1v56a1,1,0,0,0,1,1h40a1,1,0,0,0,1-1V52.891l1.31,1.31-.569.569a1,1,0,0,0,0,1.414L52.322,60.9a1,1,0,0,0,1.414,0l5.1-5.105A1,1,0,0,0,58.841,54.38Zm-5.812,4.4-3.3-3.3,3.691-3.691,3.3,3.3Zm-8.163.03h-38v-54h30v7a1,1,0,0,0,1,1h7V23.227l-.125-.126a16.757,16.757,0,1,0-2.149,25.516l2.274,2.274Zm4.724-6.022-5.418-5.418L45.31,46.23l5.419,5.418Zm-6.263-7.4a14.757,14.757,0,1,1,0-20.87A14.765,14.765,0,0,1,43.327,45.385ZM38.866,6.222l4.586,4.586H38.866Z"></path> <path d="M33.951,35.073l.01-7.12a1,1,0,0,0-1-1h-2a1,1,0,0,0,0,2h1l0,2h-.995a1,1,0,1,0,0,2h.992l0,2.128a4,4,0,1,0,2-.005Zm-.99,5.875a2,2,0,1,1,2-2A2,2,0,0,1,32.961,40.948Z"></path> </g> </g></svg>